solid exported
	facet normal 1 0 0
		outer loop
			vertex 5.389999866485596 2.409999966621399 2.940000057220459
			vertex 5.389999866485596 -0.09000003337860107 2.940000057220459
			vertex 5.389999866485596 2.409999966621399 -2.940000057220459
		endloop
	endfacet
	facet normal 1 0 0
		outer loop
			vertex 5.389999866485596 -0.09000003337860107 2.940000057220459
			vertex 5.389999866485596 -0.09000003337860107 -2.940000057220459
			vertex 5.389999866485596 2.409999966621399 -2.940000057220459
		endloop
	endfacet
	facet normal -1 0 0
		outer loop
			vertex -5.389999866485596 2.409999966621399 -2.940000057220459
			vertex -5.389999866485596 -0.09000003337860107 -2.940000057220459
			vertex -5.389999866485596 2.409999966621399 2.940000057220459
		endloop
	endfacet
	facet normal -1 0 0
		outer loop
			vertex -5.389999866485596 -0.09000003337860107 -2.940000057220459
			vertex -5.389999866485596 -0.09000003337860107 2.940000057220459
			vertex -5.389999866485596 2.409999966621399 2.940000057220459
		endloop
	endfacet
	facet normal 0 1 0
		outer loop
			vertex -5.389999866485596 2.409999966621399 -2.940000057220459
			vertex -5.389999866485596 2.409999966621399 2.940000057220459
			vertex 5.389999866485596 2.409999966621399 -2.940000057220459
		endloop
	endfacet
	facet normal 0 1 0
		outer loop
			vertex -5.389999866485596 2.409999966621399 2.940000057220459
			vertex 5.389999866485596 2.409999966621399 2.940000057220459
			vertex 5.389999866485596 2.409999966621399 -2.940000057220459
		endloop
	endfacet
	facet normal 0 -1 0
		outer loop
			vertex -5.389999866485596 -0.09000003337860107 2.940000057220459
			vertex -5.389999866485596 -0.09000003337860107 -2.940000057220459
			vertex 5.389999866485596 -0.09000003337860107 2.940000057220459
		endloop
	endfacet
	facet normal 0 -1 0
		outer loop
			vertex -5.389999866485596 -0.09000003337860107 -2.940000057220459
			vertex 5.389999866485596 -0.09000003337860107 -2.940000057220459
			vertex 5.389999866485596 -0.09000003337860107 2.940000057220459
		endloop
	endfacet
	facet normal 0 0 1
		outer loop
			vertex -5.389999866485596 2.409999966621399 2.940000057220459
			vertex -5.389999866485596 -0.09000003337860107 2.940000057220459
			vertex 5.389999866485596 2.409999966621399 2.940000057220459
		endloop
	endfacet
	facet normal 0 0 1
		outer loop
			vertex -5.389999866485596 -0.09000003337860107 2.940000057220459
			vertex 5.389999866485596 -0.09000003337860107 2.940000057220459
			vertex 5.389999866485596 2.409999966621399 2.940000057220459
		endloop
	endfacet
	facet normal 0 0 -1
		outer loop
			vertex 5.389999866485596 2.409999966621399 -2.940000057220459
			vertex 5.389999866485596 -0.09000003337860107 -2.940000057220459
			vertex -5.389999866485596 2.409999966621399 -2.940000057220459
		endloop
	endfacet
	facet normal 0 0 -1
		outer loop
			vertex 5.389999866485596 -0.09000003337860107 -2.940000057220459
			vertex -5.389999866485596 -0.09000003337860107 -2.940000057220459
			vertex -5.389999866485596 2.409999966621399 -2.940000057220459
		endloop
	endfacet
	facet normal 1 0 0
		outer loop
			vertex -0.7799999713897705 0.7299999874085188 2.900000035762787
			vertex -0.7799999713897705 0.6699999887496233 2.900000035762787
			vertex -0.7799999713897705 0.7299999874085188 1.0200000405311584
		endloop
	endfacet
	facet normal 1 0 0
		outer loop
			vertex -0.7799999713897705 0.6699999887496233 2.900000035762787
			vertex -0.7799999713897705 0.6699999887496233 1.0200000405311584
			vertex -0.7799999713897705 0.7299999874085188 1.0200000405311584
		endloop
	endfacet
	facet normal -1 0 0
		outer loop
			vertex -1.7799999713897705 0.7299999874085188 1.0200000405311584
			vertex -1.7799999713897705 0.6699999887496233 1.0200000405311584
			vertex -1.7799999713897705 0.7299999874085188 2.900000035762787
		endloop
	endfacet
	facet normal -1 0 0
		outer loop
			vertex -1.7799999713897705 0.6699999887496233 1.0200000405311584
			vertex -1.7799999713897705 0.6699999887496233 2.900000035762787
			vertex -1.7799999713897705 0.7299999874085188 2.900000035762787
		endloop
	endfacet
	facet normal 0 1 0
		outer loop
			vertex -1.7799999713897705 0.7299999874085188 1.0200000405311584
			vertex -1.7799999713897705 0.7299999874085188 2.900000035762787
			vertex -0.7799999713897705 0.7299999874085188 1.0200000405311584
		endloop
	endfacet
	facet normal 0 1 0
		outer loop
			vertex -1.7799999713897705 0.7299999874085188 2.900000035762787
			vertex -0.7799999713897705 0.7299999874085188 2.900000035762787
			vertex -0.7799999713897705 0.7299999874085188 1.0200000405311584
		endloop
	endfacet
	facet normal 0 -1 0
		outer loop
			vertex -1.7799999713897705 0.6699999887496233 2.900000035762787
			vertex -1.7799999713897705 0.6699999887496233 1.0200000405311584
			vertex -0.7799999713897705 0.6699999887496233 2.900000035762787
		endloop
	endfacet
	facet normal 0 -1 0
		outer loop
			vertex -1.7799999713897705 0.6699999887496233 1.0200000405311584
			vertex -0.7799999713897705 0.6699999887496233 1.0200000405311584
			vertex -0.7799999713897705 0.6699999887496233 2.900000035762787
		endloop
	endfacet
	facet normal 0 0 1
		outer loop
			vertex -1.7799999713897705 0.7299999874085188 2.900000035762787
			vertex -1.7799999713897705 0.6699999887496233 2.900000035762787
			vertex -0.7799999713897705 0.7299999874085188 2.900000035762787
		endloop
	endfacet
	facet normal 0 0 1
		outer loop
			vertex -1.7799999713897705 0.6699999887496233 2.900000035762787
			vertex -0.7799999713897705 0.6699999887496233 2.900000035762787
			vertex -0.7799999713897705 0.7299999874085188 2.900000035762787
		endloop
	endfacet
	facet normal 0 0 -1
		outer loop
			vertex -0.7799999713897705 0.7299999874085188 1.0200000405311584
			vertex -0.7799999713897705 0.6699999887496233 1.0200000405311584
			vertex -1.7799999713897705 0.7299999874085188 1.0200000405311584
		endloop
	endfacet
	facet normal 0 0 -1
		outer loop
			vertex -0.7799999713897705 0.6699999887496233 1.0200000405311584
			vertex -1.7799999713897705 0.6699999887496233 1.0200000405311584
			vertex -1.7799999713897705 0.7299999874085188 1.0200000405311584
		endloop
	endfacet
	facet normal 1 0 0
		outer loop
			vertex -1.6299999468028545 0.6900000274181366 2.66999988630414
			vertex -1.6299999468028545 -0.04999998211860657 2.66999988630414
			vertex -1.6299999468028545 0.6900000274181366 2.569999884814024
		endloop
	endfacet
	facet normal 1 0 0
		outer loop
			vertex -1.6299999468028545 -0.04999998211860657 2.66999988630414
			vertex -1.6299999468028545 -0.04999998211860657 2.569999884814024
			vertex -1.6299999468028545 0.6900000274181366 2.569999884814024
		endloop
	endfacet
	facet normal -1 0 0
		outer loop
			vertex -1.7299999482929707 0.6900000274181366 2.569999884814024
			vertex -1.7299999482929707 -0.04999998211860657 2.569999884814024
			vertex -1.7299999482929707 0.6900000274181366 2.66999988630414
		endloop
	endfacet
	facet normal -1 0 0
		outer loop
			vertex -1.7299999482929707 -0.04999998211860657 2.569999884814024
			vertex -1.7299999482929707 -0.04999998211860657 2.66999988630414
			vertex -1.7299999482929707 0.6900000274181366 2.66999988630414
		endloop
	endfacet
	facet normal 0 1 0
		outer loop
			vertex -1.7299999482929707 0.6900000274181366 2.569999884814024
			vertex -1.7299999482929707 0.6900000274181366 2.66999988630414
			vertex -1.6299999468028545 0.6900000274181366 2.569999884814024
		endloop
	endfacet
	facet normal 0 1 0
		outer loop
			vertex -1.7299999482929707 0.6900000274181366 2.66999988630414
			vertex -1.6299999468028545 0.6900000274181366 2.66999988630414
			vertex -1.6299999468028545 0.6900000274181366 2.569999884814024
		endloop
	endfacet
	facet normal 0 -1 0
		outer loop
			vertex -1.7299999482929707 -0.04999998211860657 2.66999988630414
			vertex -1.7299999482929707 -0.04999998211860657 2.569999884814024
			vertex -1.6299999468028545 -0.04999998211860657 2.66999988630414
		endloop
	endfacet
	facet normal 0 -1 0
		outer loop
			vertex -1.7299999482929707 -0.04999998211860657 2.569999884814024
			vertex -1.6299999468028545 -0.04999998211860657 2.569999884814024
			vertex -1.6299999468028545 -0.04999998211860657 2.66999988630414
		endloop
	endfacet
	facet normal 0 0 1
		outer loop
			vertex -1.7299999482929707 0.6900000274181366 2.66999988630414
			vertex -1.7299999482929707 -0.04999998211860657 2.66999988630414
			vertex -1.6299999468028545 0.6900000274181366 2.66999988630414
		endloop
	endfacet
	facet normal 0 0 1
		outer loop
			vertex -1.7299999482929707 -0.04999998211860657 2.66999988630414
			vertex -1.6299999468028545 -0.04999998211860657 2.66999988630414
			vertex -1.6299999468028545 0.6900000274181366 2.66999988630414
		endloop
	endfacet
	facet normal 0 0 -1
		outer loop
			vertex -1.6299999468028545 0.6900000274181366 2.569999884814024
			vertex -1.6299999468028545 -0.04999998211860657 2.569999884814024
			vertex -1.7299999482929707 0.6900000274181366 2.569999884814024
		endloop
	endfacet
	facet normal 0 0 -1
		outer loop
			vertex -1.6299999468028545 -0.04999998211860657 2.569999884814024
			vertex -1.7299999482929707 -0.04999998211860657 2.569999884814024
			vertex -1.7299999482929707 0.6900000274181366 2.569999884814024
		endloop
	endfacet
	facet normal 1 0 0
		outer loop
			vertex -0.8299999944865704 0.6900000274181366 2.66999988630414
			vertex -0.8299999944865704 -0.04999998211860657 2.66999988630414
			vertex -0.8299999944865704 0.6900000274181366 2.569999884814024
		endloop
	endfacet
	facet normal 1 0 0
		outer loop
			vertex -0.8299999944865704 -0.04999998211860657 2.66999988630414
			vertex -0.8299999944865704 -0.04999998211860657 2.569999884814024
			vertex -0.8299999944865704 0.6900000274181366 2.569999884814024
		endloop
	endfacet
	facet normal -1 0 0
		outer loop
			vertex -0.9299999959766865 0.6900000274181366 2.569999884814024
			vertex -0.9299999959766865 -0.04999998211860657 2.569999884814024
			vertex -0.9299999959766865 0.6900000274181366 2.66999988630414
		endloop
	endfacet
	facet normal -1 0 0
		outer loop
			vertex -0.9299999959766865 -0.04999998211860657 2.569999884814024
			vertex -0.9299999959766865 -0.04999998211860657 2.66999988630414
			vertex -0.9299999959766865 0.6900000274181366 2.66999988630414
		endloop
	endfacet
	facet normal 0 1 0
		outer loop
			vertex -0.9299999959766865 0.6900000274181366 2.569999884814024
			vertex -0.9299999959766865 0.6900000274181366 2.66999988630414
			vertex -0.8299999944865704 0.6900000274181366 2.569999884814024
		endloop
	endfacet
	facet normal 0 1 0
		outer loop
			vertex -0.9299999959766865 0.6900000274181366 2.66999988630414
			vertex -0.8299999944865704 0.6900000274181366 2.66999988630414
			vertex -0.8299999944865704 0.6900000274181366 2.569999884814024
		endloop
	endfacet
	facet normal 0 -1 0
		outer loop
			vertex -0.9299999959766865 -0.04999998211860657 2.66999988630414
			vertex -0.9299999959766865 -0.04999998211860657 2.569999884814024
			vertex -0.8299999944865704 -0.04999998211860657 2.66999988630414
		endloop
	endfacet
	facet normal 0 -1 0
		outer loop
			vertex -0.9299999959766865 -0.04999998211860657 2.569999884814024
			vertex -0.8299999944865704 -0.04999998211860657 2.569999884814024
			vertex -0.8299999944865704 -0.04999998211860657 2.66999988630414
		endloop
	endfacet
	facet normal 0 0 1
		outer loop
			vertex -0.9299999959766865 0.6900000274181366 2.66999988630414
			vertex -0.9299999959766865 -0.04999998211860657 2.66999988630414
			vertex -0.8299999944865704 0.6900000274181366 2.66999988630414
		endloop
	endfacet
	facet normal 0 0 1
		outer loop
			vertex -0.9299999959766865 -0.04999998211860657 2.66999988630414
			vertex -0.8299999944865704 -0.04999998211860657 2.66999988630414
			vertex -0.8299999944865704 0.6900000274181366 2.66999988630414
		endloop
	endfacet
	facet normal 0 0 -1
		outer loop
			vertex -0.8299999944865704 0.6900000274181366 2.569999884814024
			vertex -0.8299999944865704 -0.04999998211860657 2.569999884814024
			vertex -0.9299999959766865 0.6900000274181366 2.569999884814024
		endloop
	endfacet
	facet normal 0 0 -1
		outer loop
			vertex -0.8299999944865704 -0.04999998211860657 2.569999884814024
			vertex -0.9299999959766865 -0.04999998211860657 2.569999884814024
			vertex -0.9299999959766865 0.6900000274181366 2.569999884814024
		endloop
	endfacet
	facet normal 1 0 0
		outer loop
			vertex -1.6299999468028545 0.6900000274181366 1.3499999530613422
			vertex -1.6299999468028545 -0.04999998211860657 1.3499999530613422
			vertex -1.6299999468028545 0.6900000274181366 1.2499999515712261
		endloop
	endfacet
	facet normal 1 0 0
		outer loop
			vertex -1.6299999468028545 -0.04999998211860657 1.3499999530613422
			vertex -1.6299999468028545 -0.04999998211860657 1.2499999515712261
			vertex -1.6299999468028545 0.6900000274181366 1.2499999515712261
		endloop
	endfacet
	facet normal -1 0 0
		outer loop
			vertex -1.7299999482929707 0.6900000274181366 1.2499999515712261
			vertex -1.7299999482929707 -0.04999998211860657 1.2499999515712261
			vertex -1.7299999482929707 0.6900000274181366 1.3499999530613422
		endloop
	endfacet
	facet normal -1 0 0
		outer loop
			vertex -1.7299999482929707 -0.04999998211860657 1.2499999515712261
			vertex -1.7299999482929707 -0.04999998211860657 1.3499999530613422
			vertex -1.7299999482929707 0.6900000274181366 1.3499999530613422
		endloop
	endfacet
	facet normal 0 1 0
		outer loop
			vertex -1.7299999482929707 0.6900000274181366 1.2499999515712261
			vertex -1.7299999482929707 0.6900000274181366 1.3499999530613422
			vertex -1.6299999468028545 0.6900000274181366 1.2499999515712261
		endloop
	endfacet
	facet normal 0 1 0
		outer loop
			vertex -1.7299999482929707 0.6900000274181366 1.3499999530613422
			vertex -1.6299999468028545 0.6900000274181366 1.3499999530613422
			vertex -1.6299999468028545 0.6900000274181366 1.2499999515712261
		endloop
	endfacet
	facet normal 0 -1 0
		outer loop
			vertex -1.7299999482929707 -0.04999998211860657 1.3499999530613422
			vertex -1.7299999482929707 -0.04999998211860657 1.2499999515712261
			vertex -1.6299999468028545 -0.04999998211860657 1.3499999530613422
		endloop
	endfacet
	facet normal 0 -1 0
		outer loop
			vertex -1.7299999482929707 -0.04999998211860657 1.2499999515712261
			vertex -1.6299999468028545 -0.04999998211860657 1.2499999515712261
			vertex -1.6299999468028545 -0.04999998211860657 1.3499999530613422
		endloop
	endfacet
	facet normal 0 0 1
		outer loop
			vertex -1.7299999482929707 0.6900000274181366 1.3499999530613422
			vertex -1.7299999482929707 -0.04999998211860657 1.3499999530613422
			vertex -1.6299999468028545 0.6900000274181366 1.3499999530613422
		endloop
	endfacet
	facet normal 0 0 1
		outer loop
			vertex -1.7299999482929707 -0.04999998211860657 1.3499999530613422
			vertex -1.6299999468028545 -0.04999998211860657 1.3499999530613422
			vertex -1.6299999468028545 0.6900000274181366 1.3499999530613422
		endloop
	endfacet
	facet normal 0 0 -1
		outer loop
			vertex -1.6299999468028545 0.6900000274181366 1.2499999515712261
			vertex -1.6299999468028545 -0.04999998211860657 1.2499999515712261
			vertex -1.7299999482929707 0.6900000274181366 1.2499999515712261
		endloop
	endfacet
	facet normal 0 0 -1
		outer loop
			vertex -1.6299999468028545 -0.04999998211860657 1.2499999515712261
			vertex -1.7299999482929707 -0.04999998211860657 1.2499999515712261
			vertex -1.7299999482929707 0.6900000274181366 1.2499999515712261
		endloop
	endfacet
	facet normal 1 0 0
		outer loop
			vertex -0.8100000135600567 0.6900000274181366 1.3499999530613422
			vertex -0.8100000135600567 -0.04999998211860657 1.3499999530613422
			vertex -0.8100000135600567 0.6900000274181366 1.2499999515712261
		endloop
	endfacet
	facet normal 1 0 0
		outer loop
			vertex -0.8100000135600567 -0.04999998211860657 1.3499999530613422
			vertex -0.8100000135600567 -0.04999998211860657 1.2499999515712261
			vertex -0.8100000135600567 0.6900000274181366 1.2499999515712261
		endloop
	endfacet
	facet normal -1 0 0
		outer loop
			vertex -0.9100000150501728 0.6900000274181366 1.2499999515712261
			vertex -0.9100000150501728 -0.04999998211860657 1.2499999515712261
			vertex -0.9100000150501728 0.6900000274181366 1.3499999530613422
		endloop
	endfacet
	facet normal -1 0 0
		outer loop
			vertex -0.9100000150501728 -0.04999998211860657 1.2499999515712261
			vertex -0.9100000150501728 -0.04999998211860657 1.3499999530613422
			vertex -0.9100000150501728 0.6900000274181366 1.3499999530613422
		endloop
	endfacet
	facet normal 0 1 0
		outer loop
			vertex -0.9100000150501728 0.6900000274181366 1.2499999515712261
			vertex -0.9100000150501728 0.6900000274181366 1.3499999530613422
			vertex -0.8100000135600567 0.6900000274181366 1.2499999515712261
		endloop
	endfacet
	facet normal 0 1 0
		outer loop
			vertex -0.9100000150501728 0.6900000274181366 1.3499999530613422
			vertex -0.8100000135600567 0.6900000274181366 1.3499999530613422
			vertex -0.8100000135600567 0.6900000274181366 1.2499999515712261
		endloop
	endfacet
	facet normal 0 -1 0
		outer loop
			vertex -0.9100000150501728 -0.04999998211860657 1.3499999530613422
			vertex -0.9100000150501728 -0.04999998211860657 1.2499999515712261
			vertex -0.8100000135600567 -0.04999998211860657 1.3499999530613422
		endloop
	endfacet
	facet normal 0 -1 0
		outer loop
			vertex -0.9100000150501728 -0.04999998211860657 1.2499999515712261
			vertex -0.8100000135600567 -0.04999998211860657 1.2499999515712261
			vertex -0.8100000135600567 -0.04999998211860657 1.3499999530613422
		endloop
	endfacet
	facet normal 0 0 1
		outer loop
			vertex -0.9100000150501728 0.6900000274181366 1.3499999530613422
			vertex -0.9100000150501728 -0.04999998211860657 1.3499999530613422
			vertex -0.8100000135600567 0.6900000274181366 1.3499999530613422
		endloop
	endfacet
	facet normal 0 0 1
		outer loop
			vertex -0.9100000150501728 -0.04999998211860657 1.3499999530613422
			vertex -0.8100000135600567 -0.04999998211860657 1.3499999530613422
			vertex -0.8100000135600567 0.6900000274181366 1.3499999530613422
		endloop
	endfacet
	facet normal 0 0 -1
		outer loop
			vertex -0.8100000135600567 0.6900000274181366 1.2499999515712261
			vertex -0.8100000135600567 -0.04999998211860657 1.2499999515712261
			vertex -0.9100000150501728 0.6900000274181366 1.2499999515712261
		endloop
	endfacet
	facet normal 0 0 -1
		outer loop
			vertex -0.8100000135600567 -0.04999998211860657 1.2499999515712261
			vertex -0.9100000150501728 -0.04999998211860657 1.2499999515712261
			vertex -0.9100000150501728 0.6900000274181366 1.2499999515712261
		endloop
	endfacet
	facet normal 1 0 0
		outer loop
			vertex -0.5099999904632568 1.5600000023841858 -2.28999987244606
			vertex -0.5099999904632568 -0.1199999451637268 -2.28999987244606
			vertex -0.5099999904632568 1.5600000023841858 -2.949999898672104
		endloop
	endfacet
	facet normal 1 0 0
		outer loop
			vertex -0.5099999904632568 -0.1199999451637268 -2.28999987244606
			vertex -0.5099999904632568 -0.1199999451637268 -2.949999898672104
			vertex -0.5099999904632568 1.5600000023841858 -2.949999898672104
		endloop
	endfacet
	facet normal -1 0 0
		outer loop
			vertex -1.25 1.5600000023841858 -2.949999898672104
			vertex -1.25 -0.1199999451637268 -2.949999898672104
			vertex -1.25 1.5600000023841858 -2.28999987244606
		endloop
	endfacet
	facet normal -1 0 0
		outer loop
			vertex -1.25 -0.1199999451637268 -2.949999898672104
			vertex -1.25 -0.1199999451637268 -2.28999987244606
			vertex -1.25 1.5600000023841858 -2.28999987244606
		endloop
	endfacet
	facet normal 0 1 0
		outer loop
			vertex -1.25 1.5600000023841858 -2.949999898672104
			vertex -1.25 1.5600000023841858 -2.28999987244606
			vertex -0.5099999904632568 1.5600000023841858 -2.949999898672104
		endloop
	endfacet
	facet normal 0 1 0
		outer loop
			vertex -1.25 1.5600000023841858 -2.28999987244606
			vertex -0.5099999904632568 1.5600000023841858 -2.28999987244606
			vertex -0.5099999904632568 1.5600000023841858 -2.949999898672104
		endloop
	endfacet
	facet normal 0 -1 0
		outer loop
			vertex -1.25 -0.1199999451637268 -2.28999987244606
			vertex -1.25 -0.1199999451637268 -2.949999898672104
			vertex -0.5099999904632568 -0.1199999451637268 -2.28999987244606
		endloop
	endfacet
	facet normal 0 -1 0
		outer loop
			vertex -1.25 -0.1199999451637268 -2.949999898672104
			vertex -0.5099999904632568 -0.1199999451637268 -2.949999898672104
			vertex -0.5099999904632568 -0.1199999451637268 -2.28999987244606
		endloop
	endfacet
	facet normal 0 0 1
		outer loop
			vertex -1.25 1.5600000023841858 -2.28999987244606
			vertex -1.25 -0.1199999451637268 -2.28999987244606
			vertex -0.5099999904632568 1.5600000023841858 -2.28999987244606
		endloop
	endfacet
	facet normal 0 0 1
		outer loop
			vertex -1.25 -0.1199999451637268 -2.28999987244606
			vertex -0.5099999904632568 -0.1199999451637268 -2.28999987244606
			vertex -0.5099999904632568 1.5600000023841858 -2.28999987244606
		endloop
	endfacet
	facet normal 0 0 -1
		outer loop
			vertex -0.5099999904632568 1.5600000023841858 -2.949999898672104
			vertex -0.5099999904632568 -0.1199999451637268 -2.949999898672104
			vertex -1.25 1.5600000023841858 -2.949999898672104
		endloop
	endfacet
	facet normal 0 0 -1
		outer loop
			vertex -0.5099999904632568 -0.1199999451637268 -2.949999898672104
			vertex -1.25 -0.1199999451637268 -2.949999898672104
			vertex -1.25 1.5600000023841858 -2.949999898672104
		endloop
	endfacet
	facet normal 0.9999576464959523 0 -0.009203543571710208
		outer loop
			vertex -5.352821370272649 1.5099999606609344 0.0799669277680124
			vertex -5.352821370272649 0.5699999630451202 0.0799669277680124
			vertex -5.36717889675616 1.5099999606609344 -1.4799669039261545
		endloop
	endfacet
	facet normal 0.9999576464959523 0 -0.009203543571710208
		outer loop
			vertex -5.352821370272649 0.5699999630451202 0.0799669277680124
			vertex -5.36717889675616 0.5699999630451202 -1.4799669039261545
			vertex -5.36717889675616 1.5099999606609344 -1.4799669039261545
		endloop
	endfacet
	facet normal 0.09543539980563122 0.22799390532429928 0.9689741294786532
		outer loop
			vertex 0 2.509999915957451 0.03999999910593033
			vertex 0 2.169999912381172 0.11999999731779099
			vertex 0.007803612854331732 2.509999915957451 0.03923141211271286
		endloop
	endfacet
	facet normal 0.09543540168758026 0.22799390524169055 0.9689741293127353
		outer loop
			vertex 0 2.169999912381172 0.11999999731779099
			vertex 0.023410838097333908 2.169999912381172 0.11769423633813858
			vertex 0.007803612854331732 2.509999915957451 0.03923141211271286
		endloop
	endfacet
	facet normal 0.282639407472538 0.2279939076123656 0.93173694969944
		outer loop
			vertex 0.007803612854331732 2.509999915957451 0.03923141211271286
			vertex 0.023410838097333908 2.169999912381172 0.11769423633813858
			vertex 0.015307337045669556 2.509999915957451 0.03695518150925636
		endloop
	endfacet
	facet normal 0.2826395437373696 0.2279939014049261 0.9317369098828769
		outer loop
			vertex 0.023410838097333908 2.169999912381172 0.11769423633813858
			vertex 0.04592201113700867 2.169999912381172 0.11086554080247879
			vertex 0.015307337045669556 2.509999915957451 0.03695518150925636
		endloop
	endfacet
	facet normal 0.4589813456983188 0.22799389697574166 0.8586937214413387
		outer loop
			vertex 0.015307337045669556 2.509999915957451 0.03695518150925636
			vertex 0.04592201113700867 2.169999912381172 0.11086554080247879
			vertex 0.022222809493541718 2.509999915957451 0.03325878456234932
		endloop
	endfacet
	facet normal 0.45898134569831883 0.22799389697574168 0.8586937214413388
		outer loop
			vertex 0.04592201113700867 2.169999912381172 0.11086554080247879
			vertex 0.06666842848062515 2.169999912381172 0.09977634996175766
			vertex 0.022222809493541718 2.509999915957451 0.03325878456234932
		endloop
	endfacet
	facet normal 0.6176851317177184 0.22799389439390427 0.7526512221301219
		outer loop
			vertex 0.022222809493541718 2.509999915957451 0.03325878456234932
			vertex 0.06666842848062515 2.169999912381172 0.09977634996175766
			vertex 0.02828427031636238 2.509999915957451 0.02828427031636238
		endloop
	endfacet
	facet normal 0.6176848696497428 0.22799390909515677 0.7526514327504397
		outer loop
			vertex 0.06666842848062515 2.169999912381172 0.09977634996175766
			vertex 0.08485281467437744 2.169999912381172 0.08485281467437744
			vertex 0.02828427031636238 2.509999915957451 0.02828427031636238
		endloop
	endfacet
	facet normal 0.7526512181385345 0.22799391644578285 0.6176851284419059
		outer loop
			vertex 0.02828427031636238 2.509999915957451 0.02828427031636238
			vertex 0.08485281467437744 2.169999912381172 0.08485281467437744
			vertex 0.03325878456234932 2.509999915957451 0.022222809493541718
		endloop
	endfacet
	facet normal 0.7526514340809694 0.22799390174453005 0.61768487074168
		outer loop
			vertex 0.08485281467437744 2.169999912381172 0.08485281467437744
			vertex 0.09977634996175766 2.169999912381172 0.06666842848062515
			vertex 0.03325878456234932 2.509999915957451 0.022222809493541718
		endloop
	endfacet
	facet normal 0.8586937214413387 0.22799389697574166 0.4589813456983188
		outer loop
			vertex 0.03325878456234932 2.509999915957451 0.022222809493541718
			vertex 0.09977634996175766 2.169999912381172 0.06666842848062515
			vertex 0.03695518150925636 2.509999915957451 0.015307337045669556
		endloop
	endfacet
	facet normal 0.8586937214413388 0.22799389697574168 0.45898134569831883
		outer loop
			vertex 0.09977634996175766 2.169999912381172 0.06666842848062515
			vertex 0.11086554080247879 2.169999912381172 0.04592201113700867
			vertex 0.03695518150925636 2.509999915957451 0.015307337045669556
		endloop
	endfacet
	facet normal 0.9317369517858661 0.22799389830121414 0.2826394081054487
		outer loop
			vertex 0.03695518150925636 2.509999915957451 0.015307337045669556
			vertex 0.11086554080247879 2.169999912381172 0.04592201113700867
			vertex 0.03923141211271286 2.509999915957451 0.007803612854331732
		endloop
	endfacet
	facet normal 0.9317369091874017 0.22799390450864304 0.2826395435263993
		outer loop
			vertex 0.11086554080247879 2.169999912381172 0.04592201113700867
			vertex 0.11769423633813858 2.169999912381172 0.023410838097333908
			vertex 0.03923141211271286 2.509999915957451 0.007803612854331732
		endloop
	endfacet
	facet normal 0.9689741295075293 0.22799390520038615 0.09543539980847533
		outer loop
			vertex 0.03923141211271286 2.509999915957451 0.007803612854331732
			vertex 0.11769423633813858 2.169999912381172 0.023410838097333908
			vertex 0.03999999910593033 2.509999915957451 2.449293581093244e-18
		endloop
	endfacet
	facet normal 0.9689741293031099 0.2279939052829949 0.09543540168663225
		outer loop
			vertex 0.11769423633813858 2.169999912381172 0.023410838097333908
			vertex 0.11999999731779099 2.169999912381172 7.347880950074885e-18
			vertex 0.03999999910593033 2.509999915957451 2.449293581093244e-18
		endloop
	endfacet
	facet normal 0.9689741294786532 0.22799390532429928 -0.0954353998056312
		outer loop
			vertex 0.03999999910593033 2.509999915957451 2.449293581093244e-18
			vertex 0.11999999731779099 2.169999912381172 7.347880950074885e-18
			vertex 0.03923141211271286 2.509999915957451 -0.007803612854331732
		endloop
	endfacet
	facet normal 0.9689741293127353 0.22799390524169058 -0.09543540168758023
		outer loop
			vertex 0.11999999731779099 2.169999912381172 7.347880950074885e-18
			vertex 0.11769423633813858 2.169999912381172 -0.023410838097333908
			vertex 0.03923141211271286 2.509999915957451 -0.007803612854331732
		endloop
	endfacet
	facet normal 0.93173694969944 0.2279939076123656 -0.282639407472538
		outer loop
			vertex 0.03923141211271286 2.509999915957451 -0.007803612854331732
			vertex 0.11769423633813858 2.169999912381172 -0.023410838097333908
			vertex 0.03695518150925636 2.509999915957451 -0.015307337045669556
		endloop
	endfacet
	facet normal 0.9317369098828772 0.22799390140492615 -0.28263954373736966
		outer loop
			vertex 0.11769423633813858 2.169999912381172 -0.023410838097333908
			vertex 0.11086554080247879 2.169999912381172 -0.04592201113700867
			vertex 0.03695518150925636 2.509999915957451 -0.015307337045669556
		endloop
	endfacet
	facet normal 0.8586937214413387 0.22799389697574166 -0.4589813456983188
		outer loop
			vertex 0.03695518150925636 2.509999915957451 -0.015307337045669556
			vertex 0.11086554080247879 2.169999912381172 -0.04592201113700867
			vertex 0.03325878456234932 2.509999915957451 -0.022222809493541718
		endloop
	endfacet
	facet normal 0.8586937214413388 0.22799389697574168 -0.45898134569831883
		outer loop
			vertex 0.11086554080247879 2.169999912381172 -0.04592201113700867
			vertex 0.09977634996175766 2.169999912381172 -0.06666842848062515
			vertex 0.03325878456234932 2.509999915957451 -0.022222809493541718
		endloop
	endfacet
	facet normal 0.7526512221301219 0.22799389439390427 -0.6176851317177184
		outer loop
			vertex 0.03325878456234932 2.509999915957451 -0.022222809493541718
			vertex 0.09977634996175766 2.169999912381172 -0.06666842848062515
			vertex 0.02828427031636238 2.509999915957451 -0.02828427031636238
		endloop
	endfacet
	facet normal 0.7526514327504399 0.22799390909515682 -0.6176848696497429
		outer loop
			vertex 0.09977634996175766 2.169999912381172 -0.06666842848062515
			vertex 0.08485281467437744 2.169999912381172 -0.08485281467437744
			vertex 0.02828427031636238 2.509999915957451 -0.02828427031636238
		endloop
	endfacet
	facet normal 0.6176851284419059 0.22799391644578285 -0.7526512181385345
		outer loop
			vertex 0.02828427031636238 2.509999915957451 -0.02828427031636238
			vertex 0.08485281467437744 2.169999912381172 -0.08485281467437744
			vertex 0.022222809493541718 2.509999915957451 -0.03325878456234932
		endloop
	endfacet
	facet normal 0.61768487074168 0.22799390174453005 -0.7526514340809694
		outer loop
			vertex 0.08485281467437744 2.169999912381172 -0.08485281467437744
			vertex 0.06666842848062515 2.169999912381172 -0.09977634996175766
			vertex 0.022222809493541718 2.509999915957451 -0.03325878456234932
		endloop
	endfacet
	facet normal 0.4589813456983188 0.22799389697574166 -0.8586937214413387
		outer loop
			vertex 0.022222809493541718 2.509999915957451 -0.03325878456234932
			vertex 0.06666842848062515 2.169999912381172 -0.09977634996175766
			vertex 0.015307337045669556 2.509999915957451 -0.03695518150925636
		endloop
	endfacet
	facet normal 0.45898134569831883 0.22799389697574168 -0.8586937214413388
		outer loop
			vertex 0.06666842848062515 2.169999912381172 -0.09977634996175766
			vertex 0.04592201113700867 2.169999912381172 -0.11086554080247879
			vertex 0.015307337045669556 2.509999915957451 -0.03695518150925636
		endloop
	endfacet
	facet normal 0.2826394081054487 0.22799389830121414 -0.9317369517858661
		outer loop
			vertex 0.015307337045669556 2.509999915957451 -0.03695518150925636
			vertex 0.04592201113700867 2.169999912381172 -0.11086554080247879
			vertex 0.007803612854331732 2.509999915957451 -0.03923141211271286
		endloop
	endfacet
	facet normal 0.2826395435263993 0.22799390450864304 -0.9317369091874017
		outer loop
			vertex 0.04592201113700867 2.169999912381172 -0.11086554080247879
			vertex 0.023410838097333908 2.169999912381172 -0.11769423633813858
			vertex 0.007803612854331732 2.509999915957451 -0.03923141211271286
		endloop
	endfacet
	facet normal 0.09543539980847533 0.22799390520038615 -0.9689741295075293
		outer loop
			vertex 0.007803612854331732 2.509999915957451 -0.03923141211271286
			vertex 0.023410838097333908 2.169999912381172 -0.11769423633813858
			vertex 4.898587162186488e-18 2.509999915957451 -0.03999999910593033
		endloop
	endfacet
	facet normal 0.0954354016866323 0.22799390528299496 -0.9689741293031099
		outer loop
			vertex 0.023410838097333908 2.169999912381172 -0.11769423633813858
			vertex 1.469576190014977e-17 2.169999912381172 -0.11999999731779099
			vertex 4.898587162186488e-18 2.509999915957451 -0.03999999910593033
		endloop
	endfacet
	facet normal -0.09543539980563116 0.22799390532429928 -0.9689741294786532
		outer loop
			vertex 4.898587162186488e-18 2.509999915957451 -0.03999999910593033
			vertex 1.469576190014977e-17 2.169999912381172 -0.11999999731779099
			vertex -0.007803612854331732 2.509999915957451 -0.03923141211271286
		endloop
	endfacet
	facet normal -0.09543540168758019 0.22799390524169055 -0.9689741293127353
		outer loop
			vertex 1.469576190014977e-17 2.169999912381172 -0.11999999731779099
			vertex -0.023410838097333908 2.169999912381172 -0.11769423633813858
			vertex -0.007803612854331732 2.509999915957451 -0.03923141211271286
		endloop
	endfacet
	facet normal -0.282639407472538 0.2279939076123656 -0.93173694969944
		outer loop
			vertex -0.007803612854331732 2.509999915957451 -0.03923141211271286
			vertex -0.023410838097333908 2.169999912381172 -0.11769423633813858
			vertex -0.015307337045669556 2.509999915957451 -0.03695518150925636
		endloop
	endfacet
	facet normal -0.2826395437373696 0.2279939014049261 -0.9317369098828769
		outer loop
			vertex -0.023410838097333908 2.169999912381172 -0.11769423633813858
			vertex -0.04592201113700867 2.169999912381172 -0.11086554080247879
			vertex -0.015307337045669556 2.509999915957451 -0.03695518150925636
		endloop
	endfacet
	facet normal -0.4589813456983188 0.22799389697574166 -0.8586937214413387
		outer loop
			vertex -0.015307337045669556 2.509999915957451 -0.03695518150925636
			vertex -0.04592201113700867 2.169999912381172 -0.11086554080247879
			vertex -0.022222809493541718 2.509999915957451 -0.03325878456234932
		endloop
	endfacet
	facet normal -0.45898134569831883 0.22799389697574168 -0.8586937214413388
		outer loop
			vertex -0.04592201113700867 2.169999912381172 -0.11086554080247879
			vertex -0.06666842848062515 2.169999912381172 -0.09977634996175766
			vertex -0.022222809493541718 2.509999915957451 -0.03325878456234932
		endloop
	endfacet
	facet normal -0.6176851317177184 0.22799389439390427 -0.7526512221301219
		outer loop
			vertex -0.022222809493541718 2.509999915957451 -0.03325878456234932
			vertex -0.06666842848062515 2.169999912381172 -0.09977634996175766
			vertex -0.02828427031636238 2.509999915957451 -0.02828427031636238
		endloop
	endfacet
	facet normal -0.6176848696497428 0.22799390909515677 -0.7526514327504397
		outer loop
			vertex -0.06666842848062515 2.169999912381172 -0.09977634996175766
			vertex -0.08485281467437744 2.169999912381172 -0.08485281467437744
			vertex -0.02828427031636238 2.509999915957451 -0.02828427031636238
		endloop
	endfacet
	facet normal -0.7526512181385345 0.22799391644578285 -0.6176851284419059
		outer loop
			vertex -0.02828427031636238 2.509999915957451 -0.02828427031636238
			vertex -0.08485281467437744 2.169999912381172 -0.08485281467437744
			vertex -0.03325878456234932 2.509999915957451 -0.022222809493541718
		endloop
	endfacet
	facet normal -0.7526514340809694 0.22799390174453005 -0.61768487074168
		outer loop
			vertex -0.08485281467437744 2.169999912381172 -0.08485281467437744
			vertex -0.09977634996175766 2.169999912381172 -0.06666842848062515
			vertex -0.03325878456234932 2.509999915957451 -0.022222809493541718
		endloop
	endfacet
	facet normal -0.8586937214413387 0.22799389697574166 -0.4589813456983188
		outer loop
			vertex -0.03325878456234932 2.509999915957451 -0.022222809493541718
			vertex -0.09977634996175766 2.169999912381172 -0.06666842848062515
			vertex -0.03695518150925636 2.509999915957451 -0.015307337045669556
		endloop
	endfacet
	facet normal -0.8586937214413388 0.22799389697574168 -0.45898134569831883
		outer loop
			vertex -0.09977634996175766 2.169999912381172 -0.06666842848062515
			vertex -0.11086554080247879 2.169999912381172 -0.04592201113700867
			vertex -0.03695518150925636 2.509999915957451 -0.015307337045669556
		endloop
	endfacet
	facet normal -0.9317369517858661 0.22799389830121414 -0.2826394081054487
		outer loop
			vertex -0.03695518150925636 2.509999915957451 -0.015307337045669556
			vertex -0.11086554080247879 2.169999912381172 -0.04592201113700867
			vertex -0.03923141211271286 2.509999915957451 -0.007803612854331732
		endloop
	endfacet
	facet normal -0.9317369091874017 0.22799390450864304 -0.2826395435263993
		outer loop
			vertex -0.11086554080247879 2.169999912381172 -0.04592201113700867
			vertex -0.11769423633813858 2.169999912381172 -0.023410838097333908
			vertex -0.03923141211271286 2.509999915957451 -0.007803612854331732
		endloop
	endfacet
	facet normal -0.9689741295075293 0.22799390520038598 -0.09543539980847533
		outer loop
			vertex -0.03923141211271286 2.509999915957451 -0.007803612854331732
			vertex -0.11769423633813858 2.169999912381172 -0.023410838097333908
			vertex -0.03999999910593033 2.509999915957451 -7.347880950074885e-18
		endloop
	endfacet
	facet normal -0.9689741293031099 0.22799390528299493 -0.09543540168663232
		outer loop
			vertex -0.11769423633813858 2.169999912381172 -0.023410838097333908
			vertex -0.11999999731779099 2.169999912381172 -2.204364202304404e-17
			vertex -0.03999999910593033 2.509999915957451 -7.347880950074885e-18
		endloop
	endfacet
	facet normal -0.9689741294786532 0.22799390532429928 0.09543539980563115
		outer loop
			vertex -0.03999999910593033 2.509999915957451 -7.347880950074885e-18
			vertex -0.11999999731779099 2.169999912381172 -2.204364202304404e-17
			vertex -0.03923141211271286 2.509999915957451 0.007803612854331732
		endloop
	endfacet
	facet normal -0.9689741293127353 0.22799390524169058 0.09543540168758018
		outer loop
			vertex -0.11999999731779099 2.169999912381172 -2.204364202304404e-17
			vertex -0.11769423633813858 2.169999912381172 0.023410838097333908
			vertex -0.03923141211271286 2.509999915957451 0.007803612854331732
		endloop
	endfacet
	facet normal -0.93173694969944 0.2279939076123656 0.282639407472538
		outer loop
			vertex -0.03923141211271286 2.509999915957451 0.007803612854331732
			vertex -0.11769423633813858 2.169999912381172 0.023410838097333908
			vertex -0.03695518150925636 2.509999915957451 0.015307337045669556
		endloop
	endfacet
	facet normal -0.9317369098828772 0.22799390140492615 0.28263954373736966
		outer loop
			vertex -0.11769423633813858 2.169999912381172 0.023410838097333908
			vertex -0.11086554080247879 2.169999912381172 0.04592201113700867
			vertex -0.03695518150925636 2.509999915957451 0.015307337045669556
		endloop
	endfacet
	facet normal -0.8586937214413387 0.22799389697574166 0.4589813456983188
		outer loop
			vertex -0.03695518150925636 2.509999915957451 0.015307337045669556
			vertex -0.11086554080247879 2.169999912381172 0.04592201113700867
			vertex -0.03325878456234932 2.509999915957451 0.022222809493541718
		endloop
	endfacet
	facet normal -0.8586937214413388 0.22799389697574168 0.45898134569831883
		outer loop
			vertex -0.11086554080247879 2.169999912381172 0.04592201113700867
			vertex -0.09977634996175766 2.169999912381172 0.06666842848062515
			vertex -0.03325878456234932 2.509999915957451 0.022222809493541718
		endloop
	endfacet
	facet normal -0.7526512221301219 0.22799389439390427 0.6176851317177184
		outer loop
			vertex -0.03325878456234932 2.509999915957451 0.022222809493541718
			vertex -0.09977634996175766 2.169999912381172 0.06666842848062515
			vertex -0.02828427031636238 2.509999915957451 0.02828427031636238
		endloop
	endfacet
	facet normal -0.7526514327504399 0.22799390909515682 0.6176848696497429
		outer loop
			vertex -0.09977634996175766 2.169999912381172 0.06666842848062515
			vertex -0.08485281467437744 2.169999912381172 0.08485281467437744
			vertex -0.02828427031636238 2.509999915957451 0.02828427031636238
		endloop
	endfacet
	facet normal -0.6176851284419059 0.22799391644578285 0.7526512181385345
		outer loop
			vertex -0.02828427031636238 2.509999915957451 0.02828427031636238
			vertex -0.08485281467437744 2.169999912381172 0.08485281467437744
			vertex -0.022222809493541718 2.509999915957451 0.03325878456234932
		endloop
	endfacet
	facet normal -0.61768487074168 0.22799390174453005 0.7526514340809694
		outer loop
			vertex -0.08485281467437744 2.169999912381172 0.08485281467437744
			vertex -0.06666842848062515 2.169999912381172 0.09977634996175766
			vertex -0.022222809493541718 2.509999915957451 0.03325878456234932
		endloop
	endfacet
	facet normal -0.4589813456983188 0.22799389697574166 0.8586937214413387
		outer loop
			vertex -0.022222809493541718 2.509999915957451 0.03325878456234932
			vertex -0.06666842848062515 2.169999912381172 0.09977634996175766
			vertex -0.015307337045669556 2.509999915957451 0.03695518150925636
		endloop
	endfacet
	facet normal -0.45898134569831883 0.22799389697574168 0.8586937214413388
		outer loop
			vertex -0.06666842848062515 2.169999912381172 0.09977634996175766
			vertex -0.04592201113700867 2.169999912381172 0.11086554080247879
			vertex -0.015307337045669556 2.509999915957451 0.03695518150925636
		endloop
	endfacet
	facet normal -0.2826394081054487 0.22799389830121414 0.9317369517858661
		outer loop
			vertex -0.015307337045669556 2.509999915957451 0.03695518150925636
			vertex -0.04592201113700867 2.169999912381172 0.11086554080247879
			vertex -0.007803612854331732 2.509999915957451 0.03923141211271286
		endloop
	endfacet
	facet normal -0.2826395435263993 0.22799390450864304 0.9317369091874017
		outer loop
			vertex -0.04592201113700867 2.169999912381172 0.11086554080247879
			vertex -0.023410838097333908 2.169999912381172 0.11769423633813858
			vertex -0.007803612854331732 2.509999915957451 0.03923141211271286
		endloop
	endfacet
	facet normal -0.09543539980847539 0.22799390520038607 0.9689741295075293
		outer loop
			vertex -0.007803612854331732 2.509999915957451 0.03923141211271286
			vertex -0.023410838097333908 2.169999912381172 0.11769423633813858
			vertex 0 2.509999915957451 0.03999999910593033
		endloop
	endfacet
	facet normal -0.09543540168663234 0.22799390528299493 0.9689741293031099
		outer loop
			vertex -0.023410838097333908 2.169999912381172 0.11769423633813858
			vertex 0 2.169999912381172 0.11999999731779099
			vertex 0 2.509999915957451 0.03999999910593033
		endloop
	endfacet
endsolid exported
